<?xml version="1.0" standalone="no"?>
<!DOCTYPE svg PUBLIC "-//W3C//DTD SVG 20010904//EN"
 "http://www.w3.org/TR/2001/REC-SVG-20010904/DTD/svg10.dtd">
<svg version="1.0" xmlns="http://www.w3.org/2000/svg"
 width="140.000000pt" height="140.000000pt" viewBox="0 0 140.000000 140.000000"
 preserveAspectRatio="xMidYMid meet" class="icon">
<g transform="translate(0.000000,140.000000) scale(0.080000,-0.080000)"
fill="#000000" stroke="none">
<path d="M247 1502 l-247 -247 0 -375 0 -375 252 -252 252 -253 371 0 371 0
252 253 252 252 0 375 0 375 -248 248 -247 247 -380 0 -380 0 -248 -248z
m1215 -29 l248 -247 0 -348 0 -348 -247 -245 -248 -244 -340 -1 -340 0 -247
247 -248 248 0 345 0 346 248 247 248 247 339 0 339 0 248 -247z" fill="#bbb"/>
<path d="M604 1646 c-3 -7 -4 -33 -2 -57 l3 -44 270 0 270 0 0 55 0 55 -268 3
c-222 2 -268 0 -273 -12z" fill="#bbb"/>
<path d="M322 1437 c-100 -100 -182 -189 -182 -198 0 -16 60 -79 76 -79 5 0
94 85 198 189 l190 190 -42 40 c-23 23 -45 41 -50 41 -4 0 -89 -82 -190 -183z" fill="#bbb"/>
<path d="M1189 1580 c-23 -22 -40 -42 -38 -45 51 -58 376 -375 385 -375 6 0
28 19 49 41 l37 42 -188 188 c-104 104 -192 189 -196 189 -5 0 -27 -18 -49
-40z" fill="#bbb"/>
<path d="M585 1218 c-105 -194 -143 -268 -138 -268 3 0 43 18 90 40 l84 39 -3
-32 c-3 -29 -10 -35 -92 -76 -76 -38 -86 -45 -70 -55 11 -5 51 -26 89 -46 62
-33 70 -40 73 -68 2 -18 0 -32 -3 -32 -4 0 -41 16 -81 37 -41 20 -77 34 -80
30 -3 -3 37 -83 89 -179 l94 -173 81 -3 81 -3 -39 91 c-30 71 -36 92 -25 96
33 13 51 -4 96 -90 l46 -88 19 33 c11 19 32 60 48 92 25 53 30 57 62 57 19 0
34 -2 34 -4 0 -2 -18 -43 -40 -91 -22 -48 -40 -89 -40 -91 0 -2 38 -4 85 -4
47 0 85 4 85 8 0 4 40 82 90 172 49 91 90 170 90 176 0 6 -36 -7 -80 -28 -44
-21 -82 -38 -85 -38 -3 0 -5 15 -5 33 0 31 4 35 85 75 48 23 84 46 81 50 -2 4
-41 25 -85 47 -77 37 -81 41 -81 71 l0 33 86 -40 c48 -22 88 -39 89 -37 2 2
-33 71 -78 154 -45 82 -88 162 -96 177 -14 26 -18 27 -93 27 -43 0 -78 -2 -78
-5 0 -5 28 -76 54 -137 l16 -38 -33 0 c-32 0 -36 4 -76 85 -24 47 -46 87 -50
90 -4 2 -27 -36 -51 -86 -42 -85 -46 -89 -76 -89 l-33 0 40 84 c21 46 39 87
39 90 0 3 -37 6 -82 6 l-83 0 -50 -92z m308 -35 c2 -10 8 -26 12 -35 6 -15 2
-18 -29 -18 l-36 0 17 35 c19 39 28 44 36 18z m-273 -308 l0 -35 -35 17 -36
17 33 18 c18 9 34 17 36 18 1 0 2 -16 2 -35z m580 0 c0 -2 -13 -11 -30 -20
l-30 -16 0 36 0 36 30 -16 c17 -9 30 -18 30 -20z m-290 -260 c0 -12 -24 -55
-31 -55 -9 0 -29 33 -29 49 0 6 14 11 30 11 17 0 30 -2 30 -5z" fill="#bbb"/>
<path d="M90 880 l0 -270 60 0 60 0 0 270 0 270 -60 0 -60 0 0 -270z" fill="#bbb"/>
<path d="M1540 880 l0 -270 60 0 60 0 0 270 0 270 -60 0 -60 0 0 -270z" fill="#bbb"/>
<path d="M176 567 c-20 -18 -36 -42 -36 -51 0 -20 354 -376 374 -376 6 0 29
17 50 39 l38 39 -187 191 c-103 105 -191 191 -195 191 -4 0 -24 -15 -44 -33z" fill="#bbb"/>
<path d="M1338 407 l-187 -192 37 -37 c20 -21 42 -38 50 -38 20 0 372 356 372
376 0 17 -65 85 -79 83 -3 0 -90 -87 -193 -192z" fill="#bbb"/>
<path d="M604 206 c-3 -7 -4 -35 -2 -62 l3 -49 270 0 270 0 0 60 0 60 -268 3
c-221 2 -268 0 -273 -12z" fill="#bbb"/>
</g>
</svg>
